<svg width="47" height="39" viewBox="0 0 47 39" fill="none" xmlns="http://www.w3.org/2000/svg">
<g opacity="0.6">
<path d="M0.333344 1C0.333344 0.447716 0.781059 0 1.33334 0H18.3333C18.8856 0 19.3333 0.447715 19.3333 1V36.7634C19.3333 37.6278 18.3107 38.085 17.6665 37.5087L0.666549 22.2981C0.454526 22.1084 0.333344 21.8374 0.333344 21.5529V1Z" fill="#D9D9D9"/>
<path d="M27.3333 1C27.3333 0.447716 27.7811 0 28.3333 0H45.3333C45.8856 0 46.3333 0.447715 46.3333 1V36.7634C46.3333 37.6278 45.3107 38.085 44.6665 37.5087L27.6665 22.2981C27.4545 22.1084 27.3333 21.8374 27.3333 21.5529V1Z" fill="#D9D9D9"/>
</g>
</svg>
