<svg width="18" height="18" viewBox="0 0 18 18" fill="none" xmlns="http://www.w3.org/2000/svg">
<g clip-path="url(#clip0_344_1291)">
<path d="M9.00004 16.5C9.82504 16.5 10.5 15.825 10.5 15H7.50004C7.50004 15.825 8.16754 16.5 9.00004 16.5ZM13.5 12V8.25C13.5 5.9475 12.27 4.02 10.125 3.51V3C10.125 2.3775 9.62254 1.875 9.00004 1.875C8.37754 1.875 7.87504 2.3775 7.87504 3V3.51C5.72254 4.02 4.50004 5.94 4.50004 8.25V12L3.53254 12.9675C3.06004 13.44 3.39004 14.25 4.05754 14.25H13.935C14.6025 14.25 14.94 13.44 14.4675 12.9675L13.5 12Z" fill="white"/>
</g>
<defs>
<clipPath id="clip0_344_1291">
<rect width="18" height="18" fill="white"/>
</clipPath>
</defs>
</svg>
