<svg width="60" height="60" viewBox="0 0 60 60" fill="none" xmlns="http://www.w3.org/2000/svg">
<path d="M29.8433 51.8792C29.4549 51.8792 29.1401 51.5644 29.1401 51.1761V28.3594C29.1401 27.971 29.4549 27.6562 29.8433 27.6562C30.2316 27.6562 30.5464 27.971 30.5464 28.3594V51.1761C30.5464 51.5644 30.2316 51.8792 29.8433 51.8792Z" fill="#00619B"/>
<path d="M41.0035 51.8793C40.7621 51.8793 40.5271 51.7549 40.3962 51.5316L29.2366 32.4925C29.1734 32.3847 29.1401 32.2619 29.1401 32.1369C29.1401 31.7486 29.4549 31.4336 29.8433 31.4336C30.1093 31.4336 30.3408 31.5813 30.4603 31.7992L41.6094 50.8205C41.8058 51.1556 41.6934 51.5864 41.3584 51.7827C41.2466 51.8482 41.1243 51.8793 41.0035 51.8793Z" fill="#00619B"/>
<path d="M18.683 51.8797C18.5622 51.8797 18.4399 51.8486 18.3282 51.7831C17.9931 51.5867 17.8807 51.156 18.0771 50.8209L29.2293 31.7938C29.3496 31.5789 29.5795 31.4336 29.8432 31.4336C30.2315 31.4336 30.5463 31.7482 30.5463 32.1365C30.5463 32.2615 30.513 32.3846 30.4498 32.4924L19.2903 51.532C19.1594 51.7553 18.9244 51.8797 18.683 51.8797Z" fill="#00619B"/>
<path d="M29.8433 29.0625C28.3829 29.0625 27.1948 27.8744 27.1948 26.4141C27.1948 24.9537 28.3829 23.7656 29.8433 23.7656C31.3036 23.7656 32.4917 24.9537 32.4917 26.4141C32.4917 27.8744 31.3036 29.0625 29.8433 29.0625ZM29.8433 25.1719C29.1583 25.1719 28.6011 25.7291 28.6011 26.4141C28.6011 27.099 29.1583 27.6562 29.8433 27.6562C30.5282 27.6562 31.0854 27.099 31.0854 26.4141C31.0854 25.7291 30.5282 25.1719 29.8433 25.1719Z" fill="#00619B"/>
<path d="M19.1822 32.0552C18.9166 32.0553 18.6624 31.904 18.5436 31.6471L15.7564 25.6206C15.6781 25.4513 15.6702 25.2579 15.7346 25.0829C15.7989 24.9078 15.9301 24.7655 16.0994 24.6873L40.4393 13.4302C40.6086 13.3519 40.8019 13.3441 40.977 13.4084C41.1521 13.4727 41.2944 13.6039 41.3726 13.7732L44.1599 19.7997C44.2381 19.969 44.246 20.1624 44.1816 20.3374C44.1173 20.5125 43.9861 20.6548 43.8168 20.7331L31.9065 26.2414C31.554 26.4045 31.1362 26.2509 30.9732 25.8984C30.8102 25.546 30.9638 25.1281 31.3162 24.9651L42.5884 19.7519L40.3915 15.0017L17.3279 25.6684L19.5248 30.4186L27.7846 26.5984C28.137 26.4354 28.5549 26.589 28.718 26.9414C28.881 27.2939 28.7274 27.7117 28.375 27.8748L19.4769 31.9901C19.3814 32.0343 19.281 32.0552 19.1822 32.0552Z" fill="#00619B"/>
<path d="M9.23447 34.3509C9.1525 34.3509 9.07038 34.3366 8.99195 34.3078C8.8169 34.2434 8.67461 34.1122 8.59632 33.943L7.56496 31.713C7.48668 31.5438 7.47882 31.3504 7.54316 31.1753C7.6075 31.0003 7.73872 30.858 7.90797 30.7797L13.9527 27.9841C14.3052 27.8211 14.723 27.9746 14.886 28.3271C15.049 28.6795 14.8955 29.0974 14.543 29.2604L9.13647 31.7609L9.57751 32.7145L14.9837 30.214C15.3362 30.051 15.754 30.2045 15.9171 30.557C16.0801 30.9094 15.9265 31.3273 15.5741 31.4903L9.52966 34.286C9.43624 34.3291 9.33543 34.3509 9.23447 34.3509Z" fill="#00619B"/>
<path d="M18.304 30.1569C18.0139 30.1569 17.7648 29.9812 17.6573 29.7305L16.6345 27.5189C16.4714 27.1665 16.625 26.7486 16.9775 26.5856C17.3299 26.4226 17.7478 26.5762 17.9108 26.9287L18.9421 29.1586C19.0428 29.3763 19.0256 29.6303 18.8964 29.8324C18.7672 30.0346 18.5438 30.1569 18.304 30.1569Z" fill="#00619B"/>
<path d="M15.7013 32.4699C15.6194 32.4699 15.5373 32.4556 15.4588 32.4268C15.2838 32.3625 15.1415 32.2312 15.0632 32.062L13.1867 28.005C13.0237 27.6526 13.1772 27.2347 13.5297 27.0717L16.5546 25.6726C16.9069 25.5095 17.3249 25.6631 17.4879 26.0156L19.3644 30.0725C19.5274 30.425 19.3739 30.8428 19.0214 31.0059L15.9965 32.405C15.9031 32.4482 15.8023 32.4699 15.7013 32.4699ZM14.7582 28.0529L16.0444 30.8334L17.7929 30.0247L16.5067 27.2441L14.7582 28.0529Z" fill="#00619B"/>
<path d="M44.3548 22.5987C44.2728 22.5987 44.1907 22.5843 44.1123 22.5555C43.9372 22.4912 43.7949 22.36 43.7166 22.1907L39.2617 12.5593C39.1834 12.39 39.1756 12.1966 39.2399 12.0216C39.3043 11.8465 39.4355 11.7042 39.6047 11.626L47.046 8.1841C47.2152 8.10579 47.4087 8.09799 47.5837 8.1623C47.7588 8.22661 47.9011 8.35783 47.9793 8.5271L52.4342 18.1585C52.5972 18.511 52.4437 18.9288 52.0912 19.0918L44.65 22.5337C44.5565 22.5769 44.4558 22.5987 44.3548 22.5987ZM40.8332 12.6071L44.6978 20.9622L50.8627 18.1107L46.9982 9.75558L40.8332 12.6071Z" fill="#00619B"/>
</svg>
