<svg width="61" height="60" viewBox="0 0 61 60" fill="none" xmlns="http://www.w3.org/2000/svg">
<path d="M51.9065 47.0567H8.48228C6.01073 47.0567 4 45.046 4 42.5744V40.9231C4 40.471 4.36648 40.1045 4.81858 40.1045H55.5702C56.0223 40.1045 56.3888 40.471 56.3888 40.9231V42.5744C56.3888 45.046 54.3781 47.0567 51.9065 47.0567ZM5.63715 41.7416V42.5744C5.63715 44.1432 6.91348 45.4196 8.48228 45.4196H51.9065C53.4753 45.4196 54.7517 44.1432 54.7517 42.5744V41.7416H5.63715Z" fill="#00619B"/>
<path d="M52.0571 41.7416C51.605 41.7416 51.2385 41.3751 51.2385 40.923V13.6372H9.15009V40.923C9.15009 41.3751 8.78361 41.7416 8.33151 41.7416C7.87942 41.7416 7.51294 41.3751 7.51294 40.923V12.8186C7.51294 12.3665 7.87942 12 8.33151 12H52.0571C52.5092 12 52.8756 12.3665 52.8756 12.8186V40.923C52.8756 41.3751 52.5092 41.7416 52.0571 41.7416Z" fill="#00619B"/>
<path d="M48.6465 38.3312H11.7424C11.2903 38.3312 10.9238 37.9648 10.9238 37.5127V16.2297C10.9238 15.7776 11.2903 15.4111 11.7424 15.4111H48.6465C49.0986 15.4111 49.4651 15.7776 49.4651 16.2297V37.5127C49.4651 37.9648 49.0986 38.3312 48.6465 38.3312ZM12.561 36.6941H47.8279V17.0483H12.561V36.6941Z" fill="#00619B"/>
<path d="M33.264 44.3998H27.1247C26.6726 44.3998 26.3062 44.0334 26.3062 43.5813C26.3062 43.1292 26.6726 42.7627 27.1247 42.7627H33.264C33.7161 42.7627 34.0826 43.1292 34.0826 43.5813C34.0826 44.0334 33.7161 44.3998 33.264 44.3998Z" fill="#00619B"/>
<path d="M30.1941 30.4415C28.2246 30.4415 26.6223 28.8392 26.6223 26.8697C26.6223 24.9001 28.2246 23.2979 30.1941 23.2979C32.1636 23.2979 33.766 24.9002 33.766 26.8697C33.766 28.8392 32.1636 30.4415 30.1941 30.4415ZM30.1941 24.935C29.1274 24.935 28.2595 25.8029 28.2595 26.8697C28.2595 27.9364 29.1274 28.8043 30.1941 28.8043C31.2609 28.8043 32.1288 27.9364 32.1288 26.8697C32.1288 25.8029 31.2609 24.935 30.1941 24.935Z" fill="#00619B"/>
<path d="M31.373 34.8206H29.0154C28.5633 34.8206 28.1968 34.4541 28.1968 34.002V32.7115C27.9507 32.6274 27.7104 32.5278 27.4768 32.413L26.564 33.3257C26.2444 33.6454 25.7261 33.6454 25.4064 33.3257L23.7392 31.6586C23.5858 31.5051 23.4995 31.2969 23.4995 31.0797C23.4995 30.8626 23.5857 30.6544 23.7392 30.5009L24.652 29.5882C24.5372 29.3545 24.4376 29.1142 24.3535 28.8681H23.063C22.6109 28.8681 22.2444 28.5016 22.2444 28.0495V25.6919C22.2444 25.2398 22.6109 24.8733 23.063 24.8733H24.3535C24.4376 24.6272 24.5372 24.3869 24.652 24.1533L23.7392 23.2406C23.4195 22.9209 23.4195 22.4026 23.7392 22.0829L25.4064 20.4158C25.7261 20.0961 26.2443 20.0961 26.564 20.4158L27.4768 21.3285C27.7104 21.2137 27.9507 21.1141 28.1968 21.03V19.7395C28.1968 19.2874 28.5632 18.9209 29.0153 18.9209H31.373C31.8251 18.9209 32.1916 19.2874 32.1916 19.7395V21.03C32.4377 21.1141 32.678 21.2137 32.9116 21.3285L33.8244 20.4158C33.9779 20.2622 34.1861 20.176 34.4032 20.176C34.6203 20.176 34.8285 20.2623 34.982 20.4158L36.6492 22.0829C36.9688 22.4026 36.9688 22.9209 36.6492 23.2406L35.7364 24.1533C35.8512 24.3869 35.9508 24.6273 36.0349 24.8733H37.3254C37.7775 24.8733 38.144 25.2398 38.144 25.6919V28.0496C38.144 28.5017 37.7775 28.8682 37.3254 28.8682H36.0349C35.9508 29.1142 35.8512 29.3546 35.7364 29.5882L36.6492 30.5009C36.9688 30.8206 36.9688 31.3389 36.6492 31.6586L34.982 33.3257C34.6623 33.6454 34.1441 33.6454 33.8244 33.3257L32.9116 32.413C32.678 32.5277 32.4377 32.6274 32.1916 32.7114V34.002C32.1916 34.4541 31.8251 34.8206 31.373 34.8206ZM29.8339 33.1834H30.5544V32.0931C30.5544 31.7102 30.8199 31.3785 31.1935 31.2945C31.6983 31.181 32.1766 30.9827 32.6153 30.7051C32.9389 30.5003 33.3612 30.5472 33.6319 30.818L34.4032 31.5892L34.9127 31.0797L34.1414 30.3085C33.8707 30.0377 33.8238 29.6154 34.0286 29.2919C34.3062 28.8532 34.5045 28.3748 34.6179 27.8701C34.7019 27.4965 35.0336 27.231 35.4166 27.231H36.5069V26.5105H35.4166C35.0337 26.5105 34.7019 26.245 34.6179 25.8714C34.5045 25.3666 34.3062 24.8882 34.0286 24.4496C33.8238 24.126 33.8706 23.7037 34.1414 23.433L34.9127 22.6617L34.4032 22.1522L33.6319 22.9235C33.3611 23.1942 32.9389 23.2411 32.6153 23.0364C32.1766 22.7587 31.6982 22.5604 31.1935 22.447C30.8199 22.363 30.5544 22.0312 30.5544 21.6483V20.558H29.8339V21.6483C29.8339 22.0312 29.5684 22.363 29.1948 22.447C28.69 22.5604 28.2117 22.7587 27.773 23.0364C27.4495 23.2411 27.0272 23.1942 26.7564 22.9235L25.9852 22.1522L25.4757 22.6617L26.247 23.433C26.5177 23.7037 26.5646 24.126 26.3598 24.4496C26.0822 24.8882 25.8839 25.3666 25.7705 25.8713C25.6865 26.2449 25.3547 26.5104 24.9718 26.5104H23.8815V27.2309H24.9718C25.3547 27.2309 25.6865 27.4964 25.7705 27.87C25.8839 28.3748 26.0822 28.8531 26.3598 29.2918C26.5646 29.6154 26.5178 30.0377 26.247 30.3084L25.4757 31.0797L25.9852 31.5892L26.7565 30.8179C27.0272 30.5472 27.4495 30.5002 27.7731 30.7051C28.2117 30.9827 28.69 31.181 29.1948 31.2944C29.5684 31.3784 29.8339 31.7101 29.8339 32.0931V33.1834Z" fill="#00619B"/>
</svg>
