<svg width="56" height="46" viewBox="0 0 56 46" fill="none" xmlns="http://www.w3.org/2000/svg">
<path d="M35.4102 11.5388C35.1685 11.5388 34.9329 11.4391 34.7658 11.2626C34.6314 11.1206 34.5492 10.9571 34.4129 10.6861C34.1781 10.219 33.741 9.34966 32.8382 8.20568C32.4654 7.73321 32.318 7.57418 32.2143 7.47268C32.1436 7.40359 31.9789 7.24897 31.7416 7.0657C31.5228 7.30315 31.2779 7.50684 31.0088 7.6748C30.0875 8.2499 29.1561 8.22715 28.4763 8.2106L28.4278 8.20943C28.4067 8.20892 26.2851 8.16098 24.0212 8.31724L23.9131 8.32464C23.1798 8.37466 22.4215 8.42639 21.8532 8.72929C21.3113 9.01811 20.9928 9.62594 20.7883 10.7617C20.7281 11.0954 20.4938 11.3719 20.1768 11.4836C19.7893 11.6203 19.3749 11.4909 19.1213 11.154C18.6847 10.5742 18.6 9.80331 18.5382 9.24043L18.536 9.22126C18.4487 8.42705 18.2795 6.49931 18.5927 5.75312C18.7623 5.34913 19.2717 4.29833 20.3365 3.2694C22.4279 1.24844 25.8704 0.453502 26.5392 0.314669C27.8451 0.0436012 29.094 -0.0530493 30.2513 0.0274872C31.0661 0.0841434 31.7559 0.186081 32.3601 0.33906C33.1691 0.543919 33.8043 0.942007 34.197 1.4903C34.4 1.77377 34.5242 2.06423 34.6338 2.3205C34.7347 2.55656 34.8218 2.7604 34.9408 2.8875C35.1064 3.06447 35.3319 3.22514 35.5706 3.39525C35.836 3.58443 36.1369 3.79885 36.4078 4.07506C37.0699 4.75034 37.8186 5.88168 37.934 7.03179C38.0419 8.10676 37.5759 9.0366 37.1579 9.72653C37.1101 9.8055 36.8792 10.1643 36.6493 10.5009C36.1838 11.1819 35.9588 11.4851 35.5033 11.5339C35.4723 11.5372 35.4412 11.5388 35.4102 11.5388ZM31.5514 5.06275C31.943 5.06275 32.2664 5.2889 32.4722 5.43269L32.492 5.44654C32.9544 5.76814 33.2833 6.07024 33.4381 6.22172C33.6062 6.38626 33.8021 6.6022 34.212 7.12155C34.8101 7.87948 35.2256 8.52902 35.5196 9.04148C35.5822 8.94552 35.6327 8.86648 35.6613 8.81949C36.0726 8.14056 36.2366 7.64305 36.1927 7.2065C36.1367 6.64814 35.7113 5.86428 35.1583 5.30027C34.9956 5.13435 34.7815 4.98185 34.555 4.82037C34.2706 4.6177 33.9483 4.38805 33.6632 4.0834C33.3337 3.73147 33.1624 3.33054 33.0246 3.00832C32.9395 2.80926 32.866 2.63736 32.7743 2.50928C32.6276 2.30438 32.3279 2.13613 31.9305 2.0355C31.4285 1.90841 30.8395 1.82259 30.1298 1.77322C29.1323 1.70388 28.044 1.78959 26.8949 2.0281C25.276 2.36414 22.9055 3.22043 21.5526 4.52783C20.7169 5.33531 20.3238 6.15529 20.2135 6.41356C20.1773 6.55276 20.1403 7.04207 20.1797 7.84798C20.4119 7.59241 20.6916 7.36531 21.0301 7.18491C21.9288 6.70589 22.9198 6.63833 23.7941 6.57868L23.9007 6.57139C26.2489 6.4093 28.38 6.45779 28.4697 6.4599L28.519 6.46111C29.1023 6.4754 29.6058 6.48765 30.0822 6.19026C30.3303 6.03535 30.5436 5.8131 30.7161 5.52971C30.8545 5.30005 31.075 5.14248 31.3378 5.08564C31.4109 5.06982 31.4822 5.06275 31.5514 5.06275ZM32.218 6.42797C32.2167 6.43023 32.2153 6.43252 32.2139 6.43478C32.2153 6.43252 32.2167 6.43026 32.218 6.42797Z" fill="#00619B"/>
<path d="M28.0838 23.502C27.5912 23.502 27.0311 23.4546 26.4283 23.3217C25.8906 23.2031 24.4919 22.8059 23.1196 21.682C22.4617 21.1432 21.2555 19.9546 20.5699 18.0479C20.3958 17.5634 20.2785 17.046 20.2071 16.6694C19.7461 16.4504 19.3226 16.1312 18.9621 15.7282C18.4777 15.1866 18.1399 14.531 17.9854 13.8323C17.6703 12.4074 18.153 11.0111 19.3096 10.0013C19.6736 9.68352 20.2264 9.721 20.5442 10.085C20.862 10.4491 20.8245 11.0018 20.4605 11.3196C19.6026 12.0686 19.5702 12.894 19.6941 13.4544C19.8739 14.2677 20.5066 14.9828 21.2325 15.1935C21.565 15.29 21.8094 15.5735 21.8557 15.9167C21.9091 16.3121 22.0357 16.9525 22.2166 17.4557C22.7801 19.0227 23.8112 19.9865 24.2283 20.3281C25.3086 21.2128 26.3903 21.5212 26.8052 21.6127C27.9852 21.873 28.9582 21.7014 29.3217 21.6156C30.3129 21.3815 30.9842 20.9198 31.2709 20.7227C31.4777 20.5805 32.0183 20.1793 32.5697 19.5265C33.3672 18.5827 33.9567 17.2951 34.2747 15.8027C34.3496 15.4516 34.6312 15.1818 34.9852 15.1222C35.5507 15.027 36.2707 14.0489 36.3515 12.9306C36.4072 12.159 36.1483 11.6754 35.5821 11.4934C35.122 11.3455 34.8689 10.8526 35.0169 10.3926C35.1648 9.93256 35.6575 9.67947 36.1177 9.82738C36.8385 10.0591 37.3995 10.5214 37.7401 11.1643C38.0242 11.7005 38.1476 12.3549 38.0969 13.0567C37.993 14.4954 37.1528 16.1007 35.8694 16.6685C35.4684 18.2479 34.8093 19.5875 33.9064 20.656C33.2429 21.4413 32.5916 21.9383 32.2625 22.1647C31.9265 22.3957 31.0342 23.0093 29.7239 23.3187C29.3707 23.4022 28.7983 23.502 28.0838 23.502Z" fill="#00619B"/>
<path d="M23.4815 26.3183C23.3508 26.3183 23.2182 26.289 23.0933 26.227C22.6604 26.0122 22.4835 25.4872 22.6983 25.0543C22.9257 24.5959 23.3112 23.6763 23.3376 22.6684C23.3477 22.2816 23.2971 22.103 23.2131 21.8072C23.1894 21.7235 23.1625 21.6286 23.1357 21.5243C23.0156 21.0562 23.2977 20.5794 23.7658 20.4593C24.2339 20.3392 24.7107 20.6213 24.8308 21.0895C24.852 21.1724 24.8737 21.2487 24.8967 21.3296C24.9986 21.6891 25.1041 22.0608 25.0869 22.7143C25.0517 24.058 24.5574 25.2445 24.2659 25.8321C24.1132 26.14 23.8034 26.3183 23.4815 26.3183Z" fill="#00619B"/>
<path d="M32.5002 26.5923C32.1939 26.5923 31.8966 26.4312 31.7362 26.1449C31.2943 25.3566 30.7599 24.1217 30.7227 22.7155C30.706 22.0617 30.8111 21.6903 30.9128 21.3311C30.9222 21.2977 30.9318 21.2638 30.9415 21.229C31.0708 20.7633 31.5531 20.4908 32.0187 20.62C32.4843 20.7493 32.757 21.2316 32.6277 21.6972C32.6172 21.7349 32.6068 21.7715 32.5966 21.8075C32.5128 22.1038 32.4622 22.2826 32.4721 22.6701C32.4998 23.7183 32.9173 24.6731 33.2627 25.2893C33.499 25.7109 33.3488 26.2441 32.9273 26.4804C32.7919 26.5562 32.645 26.5923 32.5002 26.5923Z" fill="#00619B"/>
<path d="M46.5017 45.223H9.49793C9.01577 45.223 8.62446 44.8329 8.62293 44.3508C8.61458 41.7137 8.73726 35.1221 10.0535 30.8799C10.4047 29.747 10.8314 28.8217 11.3961 27.9683C11.8685 27.2533 13.2314 25.4551 15.6709 24.2152C17.9025 23.0808 20.0377 22.9112 21.4357 22.9689C21.6457 22.9775 21.8455 23.0614 21.9986 23.2052L25.8698 26.8394C26.2221 27.1701 26.2396 27.7239 25.9088 28.0762C25.5781 28.4286 25.0243 28.4461 24.672 28.1153L21.0441 24.7094C19.8619 24.6978 18.1959 24.8947 16.4639 25.7752C14.3964 26.826 13.252 28.3339 12.8559 28.9334C12.3785 29.6549 12.0298 30.4149 11.7249 31.3982C10.5931 35.0462 10.4008 40.8104 10.3758 43.473H45.6238C45.5988 40.8104 45.4065 35.0462 44.2747 31.3984C43.9698 30.4148 43.6211 29.6548 43.144 28.9339C42.7476 28.3339 41.6032 26.8261 39.5357 25.7752C37.7976 24.8917 36.1258 24.6981 34.9429 24.7095L31.1065 28.1303C30.7458 28.4519 30.1928 28.4203 29.8711 28.0597C29.5495 27.699 29.5811 27.1459 29.9417 26.8242L34.0175 23.1899C34.1686 23.0553 34.3616 22.9771 34.5638 22.9688C35.9619 22.9111 38.097 23.0807 40.3287 24.2152C42.7682 25.4552 44.131 27.2532 44.6038 27.9687C45.1681 28.8217 45.5948 29.7469 45.9461 30.88C47.2623 35.1222 47.385 41.7137 47.3766 44.3507C47.3751 44.8329 46.9839 45.223 46.5017 45.223Z" fill="#00619B"/>
<path d="M55.125 45.2227H0.875C0.391745 45.2227 0 44.8309 0 44.3477C0 43.8644 0.391745 43.4727 0.875 43.4727H55.125C55.6083 43.4727 56 43.8644 56 44.3477C56 44.8309 55.6083 45.2227 55.125 45.2227Z" fill="#00619B"/>
<path d="M39.0964 45.2245H16.9038C14.8705 45.2245 13.2163 43.5703 13.2163 41.5369V41.125C13.2163 40.6417 13.6081 40.25 14.0913 40.25H41.909C42.3923 40.25 42.784 40.6417 42.784 41.125V41.5369C42.784 43.5703 41.1298 45.2245 39.0964 45.2245ZM15.0222 42C15.2304 42.8455 15.9951 43.4745 16.9038 43.4745H39.0964C40.0053 43.4745 40.7699 42.8455 40.9781 42H15.0222Z" fill="#00619B"/>
<path d="M39.9993 41.9998H16.0015C15.5182 41.9998 15.1265 41.6081 15.1265 41.1248V28.9368C15.1265 27.6502 16.1732 26.6035 17.4598 26.6035H38.5409C39.8275 26.6035 40.8742 27.6502 40.8743 28.9368V41.1248C40.8743 41.6081 40.4825 41.9998 39.9993 41.9998ZM16.8765 40.2498H39.1243V28.9368C39.1243 28.6152 38.8625 28.3535 38.5409 28.3535H17.4598C17.1382 28.3535 16.8765 28.6152 16.8765 28.9368V40.2498Z" fill="#00619B"/>
<path d="M24.5453 37.6446C24.3601 37.6446 24.1734 37.586 24.0149 37.4649L20.7877 35C20.571 34.8345 20.4438 34.5774 20.4438 34.3047C20.4438 34.032 20.571 33.7748 20.7878 33.6093L24.0149 31.1445C24.3989 30.8512 24.948 30.9247 25.2414 31.3088C25.5347 31.6929 25.4612 32.242 25.0771 32.5353L22.7604 34.3047L25.0772 36.0742C25.4612 36.3675 25.5347 36.9166 25.2414 37.3007C25.0691 37.5261 24.8087 37.6446 24.5453 37.6446Z" fill="#00619B"/>
<path d="M31.4545 37.6446C31.1911 37.6446 30.9308 37.5262 30.7585 37.3007C30.4652 36.9166 30.5387 36.3675 30.9228 36.0742L33.2395 34.3047L30.9228 32.5353C30.5387 32.242 30.4652 31.6929 30.7585 31.3088C31.0519 30.9247 31.601 30.8512 31.985 31.1445L35.2122 33.6093C35.4289 33.7748 35.5561 34.032 35.5561 34.3047C35.5561 34.5774 35.4289 34.8345 35.2122 35L31.985 37.4649C31.8265 37.5861 31.6397 37.6446 31.4545 37.6446Z" fill="#00619B"/>
<path d="M26.9458 38.9536C26.8678 38.9536 26.7886 38.9431 26.7098 38.9211C26.2444 38.7911 25.9725 38.3083 26.1026 37.8429L28.2117 30.2959C28.3417 29.8305 28.8244 29.5587 29.2899 29.6888C29.7553 29.8188 30.0271 30.3016 29.897 30.767L27.788 38.3139C27.68 38.7006 27.3285 38.9536 26.9458 38.9536Z" fill="#00619B"/>
</svg>
