<svg width="45" height="46" viewBox="0 0 45 46" fill="none" xmlns="http://www.w3.org/2000/svg">
<path d="M40.3406 8.41818H33.8284C33.44 8.41818 33.1252 8.10339 33.1252 7.71506V1.20312C33.1252 0.814795 33.44 0.5 33.8284 0.5C34.2167 0.5 34.5315 0.814795 34.5315 1.20312V7.01193H40.3406C40.7289 7.01193 41.0437 7.32673 41.0437 7.71506C41.0437 8.10339 40.7289 8.41818 40.3406 8.41818Z" fill="#00619B"/>
<path d="M40.3408 40.6848H9.89795C9.50962 40.6848 9.19482 40.37 9.19482 39.9817V1.20313C9.19482 0.814795 9.50962 0.5 9.89795 0.5H33.8285C34.015 0.5 34.1938 0.574062 34.3257 0.705928L40.8299 7.20989C40.9619 7.33772 41.044 7.51672 41.044 7.71488V39.9817C41.0439 40.37 40.7291 40.6848 40.3408 40.6848ZM10.6011 39.2786H39.6377V8.00639L33.5372 1.90625H10.6011V39.2786Z" fill="#00619B"/>
<path d="M43.6113 45.4996H13.1685C12.7801 45.4996 12.4653 45.1848 12.4653 44.7965V39.9813C12.4653 39.593 12.7801 39.2782 13.1685 39.2782C13.5568 39.2782 13.8716 39.593 13.8716 39.9813V44.0934H42.9082V12.8212L39.8437 9.75697C39.5691 9.4824 39.569 9.03721 39.8436 8.76261C40.1182 8.48801 40.5634 8.48798 40.838 8.76258L44.1005 12.0248C44.2324 12.1526 44.3144 12.3316 44.3144 12.5297V44.7965C44.3145 45.1848 43.9997 45.4996 43.6113 45.4996Z" fill="#00619B"/>
<path d="M36.0266 16.4805H14.2122C13.8238 16.4805 13.509 16.1657 13.509 15.7773C13.509 15.389 13.8238 15.0742 14.2122 15.0742H36.0266C36.4149 15.0742 36.7297 15.389 36.7297 15.7773C36.7297 16.1657 36.4149 16.4805 36.0266 16.4805Z" fill="#00619B"/>
<path d="M36.0267 21.2949H21.9426C21.5543 21.2949 21.2395 20.9801 21.2395 20.5918C21.2395 20.2035 21.5543 19.8887 21.9426 19.8887H36.0267C36.415 19.8887 36.7298 20.2035 36.7298 20.5918C36.7298 20.9801 36.415 21.2949 36.0267 21.2949Z" fill="#00619B"/>
<path d="M19.5473 21.2959H14.2122C13.8238 21.2959 13.509 20.9811 13.509 20.5928C13.509 20.2044 13.8238 19.8896 14.2122 19.8896H19.5473C19.9356 19.8896 20.2504 20.2044 20.2504 20.5928C20.2504 20.9811 19.9356 21.2959 19.5473 21.2959Z" fill="#00619B"/>
<path d="M20.0655 11.666H14.2122C13.8238 11.666 13.509 11.3512 13.509 10.9629C13.509 10.5746 13.8238 10.2598 14.2122 10.2598H20.0655C20.4538 10.2598 20.7686 10.5746 20.7686 10.9629C20.7686 11.3512 20.4538 11.666 20.0655 11.666Z" fill="#00619B"/>
<path d="M36.0265 11.666H22.5681C22.1798 11.666 21.865 11.3512 21.865 10.9629C21.865 10.5746 22.1798 10.2598 22.5681 10.2598H36.0265C36.4148 10.2598 36.7296 10.5746 36.7296 10.9629C36.7296 11.3512 36.4148 11.666 36.0265 11.666Z" fill="#00619B"/>
<path d="M29.1197 6.85059H14.2122C13.8238 6.85059 13.509 6.53579 13.509 6.14746C13.509 5.75913 13.8238 5.44434 14.2122 5.44434H29.1197C29.508 5.44434 29.8228 5.75913 29.8228 6.14746C29.8228 6.53579 29.508 6.85059 29.1197 6.85059Z" fill="#00619B"/>
<path d="M36.0265 26.1104H14.2122C13.8238 26.1104 13.509 25.7956 13.509 25.4072C13.509 25.0189 13.8238 24.7041 14.2122 24.7041H36.0265C36.4149 24.7041 36.7296 25.0189 36.7296 25.4072C36.7296 25.7956 36.4149 26.1104 36.0265 26.1104Z" fill="#00619B"/>
<path d="M36.0266 30.9258H25.314C24.9256 30.9258 24.6108 30.611 24.6108 30.2227C24.6108 29.8343 24.9256 29.5195 25.314 29.5195H36.0266C36.4149 29.5195 36.7297 29.8343 36.7297 30.2227C36.7297 30.611 36.4149 30.9258 36.0266 30.9258Z" fill="#00619B"/>
<path d="M23.07 30.9258H14.2122C13.8238 30.9258 13.509 30.611 13.509 30.2227C13.509 29.8343 13.8238 29.5195 14.2122 29.5195H23.07C23.4583 29.5195 23.7731 29.8343 23.7731 30.2227C23.7731 30.611 23.4583 30.9258 23.07 30.9258Z" fill="#00619B"/>
<path d="M36.0266 35.7402H14.2122C13.8238 35.7402 13.509 35.4254 13.509 35.0371C13.509 34.6488 13.8238 34.334 14.2122 34.334H36.0266C36.4149 34.334 36.7297 34.6488 36.7297 35.0371C36.7297 35.4254 36.4149 35.7402 36.0266 35.7402Z" fill="#00619B"/>
<path d="M4.79118 15.6247C4.79112 15.6247 4.79109 15.6247 4.79104 15.6247L1.39146 15.624C1.00313 15.6239 0.688389 15.3091 0.688477 14.9207L0.689766 8.34189C0.689883 7.70005 0.939961 7.09668 1.39389 6.6429C1.8477 6.18927 2.45101 5.93945 3.09264 5.93945C3.09284 5.93945 3.09299 5.93945 3.09316 5.93945C3.735 5.93957 4.33837 6.18965 4.79215 6.64357C5.24593 7.09753 5.49574 7.70101 5.4956 8.34285L5.49431 14.9217C5.49428 15.1081 5.42016 15.287 5.28826 15.4188C5.15643 15.5506 4.9776 15.6247 4.79118 15.6247ZM2.09487 14.2179L4.0882 14.2183L4.08935 8.34256C4.0894 8.07634 3.98578 7.82602 3.79758 7.63773C3.60938 7.44944 3.35909 7.34573 3.0929 7.34567C3.09284 7.34567 3.09275 7.34567 3.09267 7.34567C2.8265 7.34567 2.57631 7.4493 2.38808 7.63744C2.19979 7.82564 2.09607 8.0759 2.09602 8.34212L2.09487 14.2179Z" fill="#00619B"/>
<path d="M4.78975 27.265H1.39014C1.00181 27.265 0.687012 26.9502 0.687012 26.5619V14.9209C0.687012 14.5326 1.00181 14.2178 1.39014 14.2178H4.78975C5.17808 14.2178 5.49287 14.5326 5.49287 14.9209V26.5619C5.49287 26.9502 5.17808 27.265 4.78975 27.265ZM2.09326 25.8588H4.08662V15.624H2.09326V25.8588Z" fill="#00619B"/>
<path d="M4.78853 29.8306H1.38892C1.00059 29.8306 0.685791 29.5158 0.685791 29.1275V26.5615C0.685791 26.1732 1.00059 25.8584 1.38892 25.8584H4.78853C5.17686 25.8584 5.49165 26.1732 5.49165 26.5615V29.1275C5.49165 29.5158 5.17686 29.8306 4.78853 29.8306ZM2.09204 28.4243H4.0854V27.2646H2.09204V28.4243Z" fill="#00619B"/>
<path d="M3.0874 35.2453C3.08734 35.2453 3.08728 35.2453 3.08728 35.2453C2.80173 35.2453 2.54459 35.0726 2.43657 34.8082L0.900418 31.0501C0.824246 30.8638 0.831599 30.6537 0.920661 30.4731L1.73737 28.817C1.85579 28.5769 2.10027 28.4248 2.36799 28.4248C2.36804 28.4248 2.36804 28.4248 2.3681 28.4248L3.80907 28.4251C4.07684 28.4251 4.32133 28.5772 4.43969 28.8175L5.25575 30.4739C5.34475 30.6545 5.35202 30.8646 5.27579 31.0509L3.73817 34.8085C3.63004 35.0727 3.37287 35.2453 3.0874 35.2453ZM2.3219 30.8111L3.08778 32.6847L3.85439 30.8114L3.37152 29.8312L2.80518 29.8311L2.3219 30.8111Z" fill="#00619B"/>
<path d="M7.01085 17.3357C7.01079 17.3357 7.01076 17.3357 7.0107 17.3357C6.62237 17.3356 6.30764 17.0207 6.3077 16.6324L6.3091 9.37865L4.84376 9.37109C4.45546 9.3691 4.14228 9.05267 4.1443 8.66434C4.14629 8.2773 4.46073 7.96484 4.84733 7.96484C4.84856 7.96484 4.84977 7.96484 4.85102 7.96484L7.01601 7.97601C7.40296 7.978 7.71556 8.29229 7.7155 8.67925L7.71395 16.6326C7.71389 17.0209 7.39906 17.3356 7.01085 17.3357Z" fill="#00619B"/>
</svg>
