<svg width="108" height="60" viewBox="0 0 108 60" fill="none" xmlns="http://www.w3.org/2000/svg">
<g clip-path="url(#clip0_344_1298)">
<path fill-rule="evenodd" clip-rule="evenodd" d="M36.3624 42.3047H101.246V53.5176H36.3624V42.3047ZM74.6523 44.3972C73.135 44.3972 72.4729 45.2315 72.4729 46.291V49.3193C72.4729 50.6614 73.1526 51.4383 74.6435 51.4383C76.152 51.4383 76.8142 50.6614 76.8142 49.3193V46.2998C76.8142 45.2536 76.174 44.3972 74.6523 44.3972ZM75.2048 49.6019C75.2048 50.0036 74.9154 50.2022 74.6435 50.2022C74.3629 50.2022 74.0866 50.0036 74.0866 49.6019V46.1895C74.0866 45.8054 74.3629 45.6376 74.6435 45.6376C74.9154 45.6376 75.2048 45.8054 75.2048 46.1895V49.6019ZM41.6187 44.5473L40.2593 48.7764H40.2505C40.266 48.4498 40.3146 48.0582 40.3641 47.6589L40.3641 47.6589L40.3641 47.6588C40.4271 47.1512 40.4917 46.631 40.4917 46.2159V44.5473H38.9569V51.2794H40.518L41.9081 47.1827H41.9169C41.8907 47.4327 41.846 47.7308 41.7991 48.0438L41.7991 48.0439L41.7991 48.0439L41.7991 48.0439C41.7127 48.6205 41.6187 49.2474 41.6187 49.7167V51.2794H43.1535V44.5473H41.6187ZM52.0028 47.1474V44.5473H53.6165V51.2794H52.0028V48.4188H50.9503V51.2794H49.341V44.5473H50.9503V47.1474H52.0028ZM63.8604 45.1962H64.334C65.5618 45.1962 66.4564 45.982 66.4564 47.8758C66.4564 49.8005 65.5618 50.5598 64.334 50.5598H63.8604V51.2794H62.3036V50.5598H61.83C60.611 50.5598 59.7076 49.8005 59.7076 47.8758C59.7076 45.982 60.611 45.1962 61.83 45.1962H62.3036V44.5473H63.8604V45.1962ZM61.9879 49.3503H62.3036V46.4058H61.9704C61.4003 46.4058 61.1854 46.9223 61.1854 47.8758C61.1854 48.8514 61.4178 49.3503 61.9879 49.3503ZM63.8604 49.3503H64.1849C64.755 49.3503 64.9786 48.8514 64.9786 47.8758C64.9786 46.9223 64.7725 46.4058 64.2024 46.4058H63.8604V49.3503ZM85.2688 44.5473H82.9315V51.2794H84.5453V48.6572H85.2688C86.2204 48.6572 87.229 48.2599 87.229 46.6C87.229 44.8872 86.2029 44.5473 85.2688 44.5473ZM84.8347 47.4476H84.5453V45.7568H84.804C85.2688 45.7568 85.6153 45.9158 85.6153 46.5824C85.6153 47.2489 85.2337 47.4476 84.8347 47.4476ZM97.1395 44.5473L96.6177 47.2754C96.5595 47.5797 96.5083 48.1064 96.4596 48.6066C96.4313 48.8974 96.4039 49.1793 96.3765 49.4032H96.3546C96.3293 49.1876 96.3065 48.9374 96.2831 48.6793C96.2373 48.1763 96.1887 47.643 96.1134 47.2754L95.5916 44.5473H93.3464V51.2794H94.8856V48.9088C94.8856 47.9994 94.8285 46.4499 94.8022 45.982H94.811L95.8064 51.2794H96.9247L97.9201 45.982H97.9289C97.8938 46.547 97.8456 48.2687 97.8456 48.9176V51.2794H99.3848V44.5473H97.1395Z" fill="#0079C2"/>
<path d="M32.3149 14.9745C31.3238 10.6085 28.8418 7.05486 28.4954 6.47656C27.956 7.28883 25.9739 10.4276 24.9697 13.9062C23.869 17.7821 23.7068 21.2255 24.0883 24.6158C24.4654 28.0061 25.8862 31.4804 25.8862 31.4804C26.6448 33.308 27.7762 35.2636 28.5129 36.226C29.5961 34.8133 32.0781 30.5975 32.8543 25.0837C33.284 22.0245 33.3059 19.3405 32.3149 14.9745ZM28.4954 35.1356C28.013 34.2129 27.2544 32.456 27.1842 29.741C27.1623 27.1144 28.2104 24.8674 28.5129 24.3995C28.7848 24.8674 29.6838 26.8275 29.7934 29.5071C29.8636 32.1337 28.9997 34.1953 28.4954 35.1356ZM32.0255 22.3865C31.9904 24.0507 31.7931 25.8077 31.5387 26.8628C31.6308 25.0484 31.4159 22.4924 30.9993 20.5015C30.5871 18.5061 29.4163 15.1732 28.4778 13.6325C27.614 15.0981 26.5528 17.9808 25.9958 20.4838C25.4345 22.9824 25.417 26.0108 25.417 26.9158C25.2723 26.152 24.8995 23.4239 25.0048 20.6825C25.0925 18.4178 25.6187 16.0958 25.9037 15.0275C27.0044 11.4561 28.2454 9.17383 28.4778 8.81184C28.7146 9.17383 30.2802 11.9859 31.0914 14.9392C31.8983 17.8925 32.0605 20.7178 32.0255 22.3865Z" fill="#0079C2"/>
<path d="M30.1793 37.2421H22.6455V42.332C22.6499 42.3232 22.6587 42.3188 22.6631 42.3099C24.4391 40.5221 27.3157 40.5221 29.0917 42.3099C30.8677 44.0978 30.8677 46.9937 29.0917 48.7816C29.083 48.7905 29.0742 48.7949 29.0698 48.8037C29.061 48.8125 29.0523 48.8169 29.0435 48.8258C27.2719 50.596 24.9609 51.4833 22.6455 51.4833C20.3214 51.4833 17.9972 50.5916 16.2256 48.8081C13.1033 45.665 12.7306 40.7958 15.1118 37.2421C15.4319 36.7609 15.8046 36.3062 16.2256 35.8824C17.9972 34.099 20.3214 33.2072 22.6455 33.2072V20.9746C13.7173 20.9746 6.47733 28.263 6.47733 37.2465C6.47733 46.2345 13.7173 53.5228 22.6455 53.5228C27.3026 53.5228 31.4948 51.5407 34.4461 48.3711V37.2465H30.1793V37.2421Z" fill="#0079C2"/>
</g>
<path d="M36.3624 20.9883V37.2558H39.5942V23.0057H42.5236V20.9883H36.3624Z" fill="#0079C2"/>
<path d="M49.1977 20.9883H44.1197L42.4357 37.2558H45.5975L45.8957 32.934H47.4217L47.7243 37.2558H50.886L49.1977 20.9883ZM46.0141 31.1417L46.5666 23.0057H46.7508L47.3077 31.1417H46.0141Z" fill="#0079C2"/>
<path d="M59.3802 26.4976V23.893C59.3802 22.7541 59.2443 20.9883 56.9815 20.9883H54.3021C52.0394 20.9883 51.9034 22.7541 51.9034 23.893V26.193H55.1309V23.5399C55.1309 23.1205 55.4554 23.0057 55.6396 23.0057C55.9422 23.0057 56.1483 23.2618 56.1483 23.5399V26.7757C56.1483 27.7734 55.8238 27.9853 54.9029 27.9853H53.5391V29.7732H54.8547C56.0562 29.7732 56.1483 30.3294 56.1483 30.8415V34.6247C56.1483 34.9028 55.9422 35.1589 55.6396 35.1589C55.4554 35.1589 55.1309 35.0441 55.1309 34.6247V31.561H51.9034V34.351C51.9034 35.49 52.0394 37.2558 54.3021 37.2558H56.9815C59.2443 37.2558 59.3802 35.49 59.3802 34.351V31.0754C59.3802 30.4927 59.3583 28.8196 57.1876 28.8682V28.7048C58.1567 28.749 59.3802 28.2634 59.3802 26.4976Z" fill="#0079C2"/>
<path d="M61.0816 20.9883V37.2558H64.3135V23.0057H65.3309V37.2558H68.5628V20.9883H61.0816Z" fill="#0079C2"/>
<path d="M75.5264 20.9883H70.4483V37.2558H73.6802V31.7244H75.5264C77.7892 31.7244 77.9295 29.9586 77.9295 28.8196V23.893C77.9295 22.7541 77.7892 20.9883 75.5264 20.9883ZM74.6976 29.1242C74.6976 29.6319 74.4433 29.9365 74.0968 29.9365H73.6802V23.0057H74.0968C74.4433 23.0057 74.6976 23.3059 74.6976 23.818V29.1242Z" fill="#0079C2"/>
<path d="M84.5774 20.9883H81.9025C79.6397 20.9883 79.4994 22.7541 79.4994 23.893V34.351C79.4994 35.49 79.6397 37.2558 81.9025 37.2558H84.5774C86.8402 37.2558 86.9805 35.49 86.9805 34.351V23.893C86.9805 22.7541 86.8402 20.9883 84.5774 20.9883ZM83.7486 34.6247C83.7486 34.9028 83.5381 35.1589 83.24 35.1589C83.0558 35.1589 82.7313 35.0441 82.7313 34.6247V23.5399C82.7313 23.1205 83.0558 23.0057 83.24 23.0057C83.5381 23.0057 83.7486 23.2618 83.7486 23.5399V34.6247Z" fill="#0079C2"/>
<path d="M97.0446 20.9883L94.944 32.4219L92.8435 20.9883H88.6425V37.2558H91.8744V27.0538H91.9928L93.6548 37.2558H96.2377L97.8997 27.0538H98.0181V37.2558H101.25V20.9883H97.0446Z" fill="#0079C2"/>
<defs>
<clipPath id="clip0_344_1298">
<rect width="94.7683" height="47.0455" fill="white" transform="translate(6.47727 6.47656)"/>
</clipPath>
</defs>
</svg>
